<svg data-v-fde0c5aa="" xmlns="http://www.w3.org/2000/svg" viewBox="0 0 300 300" class="iconAbove"><!----><defs data-v-fde0c5aa=""><!----></defs><rect data-v-fde0c5aa="" fill="transparent" x="0" y="0" width="300px" height="300px" class="logo-background-square"></rect><defs data-v-fde0c5aa=""><!----></defs><g data-v-fde0c5aa="" id="a522301a-427a-4aca-9cb5-7a8ed09b76de" fill="#E5E7EB" transform="matrix(4.8060911360993614,0,0,4.8060911360993614,66.66237151858654,179.20961171476077)"><path d="M3.77 13.96Q2.15 13.96 1.25 12.91Q0.35 11.85 0.35 9.73L0.35 9.73Q0.35 7.57 1.24 6.52Q2.14 5.48 3.77 5.48L3.77 5.48Q5.40 5.48 6.29 6.52Q7.17 7.57 7.17 9.73L7.17 9.73Q7.17 11.86 6.28 12.91Q5.39 13.96 3.77 13.96L3.77 13.96ZM3.75 12.22Q4.14 12.22 4.40 12.00Q4.66 11.79 4.81 11.24Q4.95 10.69 4.95 9.72L4.95 9.72Q4.95 8.73 4.81 8.18Q4.66 7.62 4.40 7.41Q4.14 7.20 3.75 7.20L3.75 7.20Q3.37 7.20 3.12 7.41Q2.86 7.62 2.72 8.18Q2.58 8.73 2.58 9.72L2.58 9.72Q2.58 10.68 2.72 11.23Q2.86 11.79 3.12 12.00Q3.37 12.22 3.75 12.22L3.75 12.22ZM8.35 16.61L8.35 5.63L10.36 5.63L10.47 7L10.55 7Q10.77 6.30 11.33 5.89Q11.89 5.48 12.63 5.48L12.63 5.48Q13.49 5.48 14.11 5.94Q14.72 6.41 15.06 7.36Q15.39 8.31 15.39 9.71L15.39 9.71Q15.39 11.10 15.07 12.06Q14.75 13.01 14.17 13.48Q13.60 13.96 12.85 13.96L12.85 13.96Q12.02 13.96 11.49 13.60Q10.96 13.24 10.71 12.56L10.71 12.56L10.62 12.56L10.62 16.61L8.35 16.61ZM11.83 12.02Q13.02 12.02 13.02 9.67L13.02 9.67Q13.02 7.41 11.83 7.41L11.83 7.41Q11.26 7.41 10.95 7.99Q10.64 8.58 10.64 9.67L10.64 9.67Q10.64 10.81 10.95 11.42Q11.26 12.02 11.83 12.02L11.83 12.02ZM16.60 13.78L16.60 2.80L18.94 2.80L18.94 13.78L16.60 13.78ZM23.53 13.96Q21.91 13.96 21.01 12.91Q20.11 11.85 20.11 9.73L20.11 9.73Q20.11 7.57 21.01 6.52Q21.90 5.48 23.53 5.48L23.53 5.48Q25.16 5.48 26.05 6.52Q26.93 7.57 26.93 9.73L26.93 9.73Q26.93 11.86 26.04 12.91Q25.16 13.96 23.53 13.96L23.53 13.96ZM23.51 12.22Q23.91 12.22 24.17 12.00Q24.42 11.79 24.57 11.24Q24.71 10.69 24.71 9.72L24.71 9.72Q24.71 8.73 24.57 8.18Q24.42 7.62 24.17 7.41Q23.91 7.20 23.51 7.20L23.51 7.20Q23.13 7.20 22.88 7.41Q22.63 7.62 22.49 8.18Q22.35 8.73 22.35 9.72L22.35 9.72Q22.35 10.68 22.49 11.23Q22.63 11.79 22.88 12.00Q23.13 12.22 23.51 12.22L23.51 12.22ZM29.36 16.81Q28.84 16.81 28.50 16.75Q28.16 16.69 27.84 16.57L27.84 16.57L28.27 15.10Q28.59 15.19 28.96 15.19L28.96 15.19Q29.50 15.19 29.77 14.85Q30.04 14.51 30.16 13.78L30.16 13.78L29.46 13.78L27.30 5.63L29.70 5.63L30.41 9.24L30.82 11.89L30.84 11.89L31.25 9.24L31.95 5.63L34.33 5.63L32.18 13.78Q31.38 16.81 29.36 16.81L29.36 16.81Z"></path></g><defs data-v-fde0c5aa=""><linearGradient data-v-fde0c5aa="" gradientTransform="rotate(25)" id="d73acc74-8245-487f-bfb8-ecd74f2e5f7c" x1="0%" y1="0%" x2="100%" y2="0%"><stop data-v-fde0c5aa="" offset="0%" stop-color="#8E42D3" stop-opacity="1"></stop><stop data-v-fde0c5aa="" offset="100%" stop-color="#D46975" stop-opacity="1"></stop></linearGradient></defs><g data-v-fde0c5aa="" id="c20ba880-bb2e-4dde-ab3d-b655b08b42e9" stroke="none" fill="url(#d73acc74-8245-487f-bfb8-ecd74f2e5f7c)" transform="matrix(7.187588931894271,0,0,7.187588931894271,34.998577089691665,-7.668089576975014)"><path d="M16 19.586l7.496-12.954H8.504zM7.496 12.414L0 25.368h14.992zM24.504 12.414l-7.496 12.954H32z"></path></g><!----></svg>